HIERARCHY
ROOT reference
{
  OFFSET 0 0 0
  CHANNELS 6 Xposition Yposition Zposition Zrotation Xrotation Yrotation
  JOINT Hips
  {
    OFFSET 346.547 88.4868 223.89
    CHANNELS 3 Zrotation Xrotation Yrotation
    JOINT RightUpLeg
    {
      OFFSET -9.27468 -1.51611 -0.00175448
      CHANNELS 3 Zrotation Xrotation Yrotation
      JOINT RightLeg
      {
        OFFSET -0.00464511 -41.8738 0.0184652
        CHANNELS 3 Zrotation Xrotation Yrotation
        JOINT RightFoot
        {
          OFFSET -0.626239 -42.3044 -0.171503
          CHANNELS 3 Zrotation Xrotation Yrotation
          End Site
          {
            OFFSET 0 -7.69 17.5
          }
        }
      }
    }
    JOINT LeftUpLeg
    {
      OFFSET 9.30083 -1.68454 -0.0454748
      CHANNELS 3 Zrotation Xrotation Yrotation
      JOINT LeftLeg
      {
        OFFSET 0.0692631 -41.8513 -0.097029
        CHANNELS 3 Zrotation Xrotation Yrotation
        JOINT LeftFoot
        {
          OFFSET 0.520945 -41.523 0.446349
          CHANNELS 3 Zrotation Xrotation Yrotation
          End Site
          {
            OFFSET 0 -7.69 17.5
          }
        }
      }
    }
    JOINT Spine
    {
      OFFSET 0.0770133 14.2992 0.0590021
      CHANNELS 3 Zrotation Xrotation Yrotation
      JOINT Spine1
      {
        OFFSET 0.0471461 9.71665 0.020973
        CHANNELS 3 Zrotation Xrotation Yrotation
        JOINT Spine2
        {
          OFFSET 0.051283 10.117 0.000913966
          CHANNELS 3 Zrotation Xrotation Yrotation
          JOINT Spine3
          {
            OFFSET 0.0447963 9.71088 0.00221408
            CHANNELS 3 Zrotation Xrotation Yrotation
            JOINT Neck
            {
              OFFSET 0.115655 10.3749 0.0448519
              CHANNELS 3 Zrotation Xrotation Yrotation
              JOINT Head
              {
                OFFSET 0.0937003 9.47807 0.0215077
                CHANNELS 3 Zrotation Xrotation Yrotation
                End Site
                {
                  OFFSET 0 15.95 0
                }
              }
            }
            JOINT RightShoulder
            {
              OFFSET -3.17023 6.91072 -0.0050072
              CHANNELS 3 Zrotation Xrotation Yrotation
              JOINT RightArm
              {
                OFFSET -12.7573 0.00694711 0.0313031
                CHANNELS 3 Zrotation Xrotation Yrotation
                JOINT RightForeArm
                {
                  OFFSET -26.5152 -0.0619338 -0.0331286
                  CHANNELS 3 Zrotation Xrotation Yrotation
                  JOINT RightHand
                  {
                    OFFSET -25.9971 0.0398378 -0.0269922
                    CHANNELS 3 Zrotation Xrotation Yrotation
                    JOINT RightHandThumb1
                    {
                      OFFSET -2.48905 0.190105 3.12053
                      CHANNELS 3 Zrotation Xrotation Yrotation
                      JOINT RightHandThumb2
                      {
                        OFFSET -3.68274 0 0
                        CHANNELS 3 Zrotation Xrotation Yrotation
                        JOINT RightHandThumb3
                        {
                          OFFSET -2.55832 0 0
                          CHANNELS 3 Zrotation Xrotation Yrotation
                          End Site
                          {
                            OFFSET -2.194 0 0
                          }
                        }
                      }
                    }
                    JOINT RightInHandIndex
                    {
                      OFFSET -3.22368 0.508421 1.97842
                      CHANNELS 3 Zrotation Xrotation Yrotation
                      JOINT RightHandIndex1
                      {
                        OFFSET -5.21684 -0.091368 0.999158
                        CHANNELS 3 Zrotation Xrotation Yrotation
                        JOINT RightHandIndex2
                        {
                          OFFSET -3.61937 0 0
                          CHANNELS 3 Zrotation Xrotation Yrotation
                          JOINT RightHandIndex3
                          {
                            OFFSET -2.0521 0 0
                            CHANNELS 3 Zrotation Xrotation Yrotation
                            End Site
                            {
                              OFFSET -1.805 0 0
                            }
                          }
                        }
                      }
                    }
                    JOINT RightInHandMiddle
                    {
                      OFFSET -3.38211 0.517263 0.756737
                      CHANNELS 3 Zrotation Xrotation Yrotation
                      JOINT RightHandMiddle1
                      {
                        OFFSET -5.17411 -0.084 0.313895
                        CHANNELS 3 Zrotation Xrotation Yrotation
                        JOINT RightHandMiddle2
                        {
                          OFFSET -3.94947 0 0
                          CHANNELS 3 Zrotation Xrotation Yrotation
                          JOINT RightHandMiddle3
                          {
                            OFFSET -2.47579 0 0
                            CHANNELS 3 Zrotation Xrotation Yrotation
                            End Site
                            {
                              OFFSET -1.975 0 0
                            }
                          }
                        }
                      }
                    }
                    JOINT RightInHandRing
                    {
                      OFFSET -3.36516 0.537895 -0.128947
                      CHANNELS 3 Zrotation Xrotation Yrotation
                      JOINT RightHandRing1
                      {
                        OFFSET -4.63474 -0.022105 -0.478947
                        CHANNELS 3 Zrotation Xrotation Yrotation
                        JOINT RightHandRing2
                        {
                          OFFSET -3.44238 0 0
                          CHANNELS 3 Zrotation Xrotation Yrotation
                          JOINT RightHandRing3
                          {
                            OFFSET -2.3881 0 0
                            CHANNELS 3 Zrotation Xrotation Yrotation
                            End Site
                            {
                              OFFSET -1.857 0 0
                            }
                          }
                        }
                      }
                    }
                    JOINT RightInHandPinky
                    {
                      OFFSET -3.16105 0.469368 -1.20179
                      CHANNELS 3 Zrotation Xrotation Yrotation
                      JOINT RightHandPinky1
                      {
                        OFFSET -4.14105 -0.022105 -1.09053
                        CHANNELS 3 Zrotation Xrotation Yrotation
                        JOINT RightHandPinky2
                        {
                          OFFSET -2.75653 0 0
                          CHANNELS 3 Zrotation Xrotation Yrotation
                          JOINT RightHandPinky3
                          {
                            OFFSET -1.74189 0 0
                            CHANNELS 3 Zrotation Xrotation Yrotation
                            End Site
                            {
                              OFFSET -1.645 0 0
                            }
                          }
                        }
                      }
                    }
                  }
                }
              }
            }
            JOINT LeftShoulder
            {
              OFFSET 3.25178 6.92057 -0.0384945
              CHANNELS 3 Zrotation Xrotation Yrotation
              JOINT LeftArm
              {
                OFFSET 12.8462 -0.0383255 -0.0637898
                CHANNELS 3 Zrotation Xrotation Yrotation
                JOINT LeftForeArm
                {
                  OFFSET 26.4888 -0.0608964 -0.0673835
                  CHANNELS 3 Zrotation Xrotation Yrotation
                  JOINT LeftHand
                  {
                    OFFSET 25.9932 -0.0402352 -0.0274148
                    CHANNELS 3 Zrotation Xrotation Yrotation
                    JOINT LeftHandThumb1
                    {
                      OFFSET 2.48905 0.190105 3.12053
                      CHANNELS 3 Zrotation Xrotation Yrotation
                      JOINT LeftHandThumb2
                      {
                        OFFSET 3.68274 0 0
                        CHANNELS 3 Zrotation Xrotation Yrotation
                        JOINT LeftHandThumb3
                        {
                          OFFSET 2.55832 0 0
                          CHANNELS 3 Zrotation Xrotation Yrotation
                          End Site
                          {
                            OFFSET 2.194 0 0
                          }
                        }
                      }
                    }
                    JOINT LeftInHandIndex
                    {
                      OFFSET 3.22368 0.508421 1.97842
                      CHANNELS 3 Zrotation Xrotation Yrotation
                      JOINT LeftHandIndex1
                      {
                        OFFSET 5.21684 -0.091368 0.999158
                        CHANNELS 3 Zrotation Xrotation Yrotation
                        JOINT LeftHandIndex2
                        {
                          OFFSET 3.61937 0 0
                          CHANNELS 3 Zrotation Xrotation Yrotation
                          JOINT LeftHandIndex3
                          {
                            OFFSET 2.0521 0 0
                            CHANNELS 3 Zrotation Xrotation Yrotation
                            End Site
                            {
                              OFFSET 1.805 0 0
                            }
                          }
                        }
                      }
                    }
                    JOINT LeftInHandMiddle
                    {
                      OFFSET 3.38211 0.517263 0.756737
                      CHANNELS 3 Zrotation Xrotation Yrotation
                      JOINT LeftHandMiddle1
                      {
                        OFFSET 5.17411 -0.084 0.313895
                        CHANNELS 3 Zrotation Xrotation Yrotation
                        JOINT LeftHandMiddle2
                        {
                          OFFSET 3.94947 0 0
                          CHANNELS 3 Zrotation Xrotation Yrotation
                          JOINT LeftHandMiddle3
                          {
                            OFFSET 2.47579 0 0
                            CHANNELS 3 Zrotation Xrotation Yrotation
                            End Site
                            {
                              OFFSET 1.975 0 0
                            }
                          }
                        }
                      }
                    }
                    JOINT LeftInHandRing
                    {
                      OFFSET 3.36516 0.537895 -0.128947
                      CHANNELS 3 Zrotation Xrotation Yrotation
                      JOINT LeftHandRing1
                      {
                        OFFSET 4.63474 -0.022105 -0.478947
                        CHANNELS 3 Zrotation Xrotation Yrotation
                        JOINT LeftHandRing2
                        {
                          OFFSET 3.44238 0 0
                          CHANNELS 3 Zrotation Xrotation Yrotation
                          JOINT LeftHandRing3
                          {
                            OFFSET 2.3881 0 0
                            CHANNELS 3 Zrotation Xrotation Yrotation
                            End Site
                            {
                              OFFSET 1.857 0 0
                            }
                          }
                        }
                      }
                    }
                    JOINT LeftInHandPinky
                    {
                      OFFSET 3.16105 0.469368 -1.20179
                      CHANNELS 3 Zrotation Xrotation Yrotation
                      JOINT LeftHandPinky1
                      {
                        OFFSET 4.14105 -0.022105 -1.09053
                        CHANNELS 3 Zrotation Xrotation Yrotation
                        JOINT LeftHandPinky2
                        {
                          OFFSET 2.75653 0 0
                          CHANNELS 3 Zrotation Xrotation Yrotation
                          JOINT LeftHandPinky3
                          {
                            OFFSET 1.74189 0 0
                            CHANNELS 3 Zrotation Xrotation Yrotation
                            End Site
                            {
                              OFFSET 1.645 0 0
                            }
                          }
                        }
                      }
                    }
                  }
                }
              }
            }
          }
        }
      }
    }
  }
}
MOTION
Frames: 2
Frame Time: 0.00833333
6.000000000000000000e+02 0.000000000000000000e+00 0.000000000000000000e+00 0.000000000000000000e+00 0.000000000000000000e+00 0.000000000000000000e+00 -2.049526574565626869e-01 -2.351175787070409681e-02 1.907283953446619051e-01 -1.897134478572361782e-01 2.436601972817203088e-01 -3.088311577434660893e-01 1.268469683247433755e-01 -1.816666771876405684e-01 -2.535004677625675093e-02 -1.476364548241143049e-01 4.072414866845518872e-02 9.484662296435221462e-02 -2.499102709141967915e-01 6.724249313568061992e-02 1.532397507950750970e-01 3.382194696730115302e-01 -1.595648563246823692e-01 -1.478737303188472907e-01 -1.647379788035753245e-01 5.632276311764955468e-02 -3.551729367974617579e-01 7.306628548055359683e-03 1.743991051824164418e-01 -3.949520300828320354e-03 1.227034172335625807e-04 3.643824085732610268e-02 -2.069968042825874079e-03 -2.168457086398156361e-03 5.817556177138832191e-02 1.454979455214560832e-03 -2.355816229283225378e-04 2.187477199849392415e-03 7.892107548714895338e-03 1.061423871161239901e-02 1.119370163452479972e-01 -5.046244435966829034e-01 8.295319894308388411e-03 -2.294384453594812967e-01 4.816735417573173583e-01 8.753549523926970610e-03 -3.395051689344179557e-01 1.506484431646769040e-01 4.108238402543321621e-01 9.394372791519617349e-02 1.100802419579694214e-01 -1.582076534334835305e+00 9.221901432129283593e-01 -3.616774670612400655e+00 2.289782693114017498e-01 -5.298516089226491532e-01 1.589207221989316077e-01 0.000000000000000000e+00 0.000000000000000000e+00 0.000000000000000000e+00 5.389215555852463257e-15 1.925770463964075400e-15 0.000000000000000000e+00 -1.832590399819575986e-14 -1.380609074233734570e-16 0.000000000000000000e+00 -5.579313489454159625e-16 -1.222932055251191810e-15 1.440210499022352547e-15 0.000000000000000000e+00 0.000000000000000000e+00 0.000000000000000000e+00 0.000000000000000000e+00 -3.578043631360345069e-16 5.521634472411091565e-15 0.000000000000000000e+00 -2.842696892908668891e-17 4.315049741510390781e-15 -5.579313489454159625e-16 -1.222932055251191810e-15 1.440210499022352547e-15 0.000000000000000000e+00 -6.979435831764152944e-15 -2.483780443386568252e-15 0.000000000000000000e+00 -2.566728815621312386e-15 -6.363661604854961865e-16 0.000000000000000000e+00 2.056726511400445864e-17 4.400467668986053332e-15 -5.579313489454159625e-16 -1.222932055251191810e-15 1.440210499022352547e-15 0.000000000000000000e+00 0.000000000000000000e+00 0.000000000000000000e+00 0.000000000000000000e+00 6.386696976004896753e-16 5.832137760982333531e-15 0.000000000000000000e+00 2.337160945389418548e-15 1.512013261863834260e-15 -5.579313489454159625e-16 -1.222932055251191810e-15 1.440210499022352547e-15 0.000000000000000000e+00 0.000000000000000000e+00 0.000000000000000000e+00 0.000000000000000000e+00 -4.115579701164987188e-15 3.975178247395961827e-15 0.000000000000000000e+00 -3.402397092346491571e-15 2.149865976565347245e-15 7.786035794317638370e-01 -7.387549245037540180e-01 -1.967895937557091246e+00 -2.624441198046163493e+00 -1.180750145486564540e+00 3.085598952551170449e+00 -1.996957410664234045e-01 -6.890363731443100992e-01 5.953524786133600200e-02 -1.153757848352175153e-01 9.677126376332521041e-01 -2.878588795534816822e-02 0.000000000000000000e+00 0.000000000000000000e+00 0.000000000000000000e+00 -8.320530975585731743e-15 1.163959567941167862e-15 0.000000000000000000e+00 -8.713241688009757629e-15 1.719457628606243680e-15 0.000000000000000000e+00 -1.011739866092877616e-15 1.597368959375674230e-16 -1.754702790808797576e-15 0.000000000000000000e+00 0.000000000000000000e+00 0.000000000000000000e+00 0.000000000000000000e+00 3.743733111748625396e-15 2.413104945983670897e-15 0.000000000000000000e+00 -2.726193267463034110e-16 -1.494633241745054000e-15 -1.011739866092877616e-15 1.597368959375674230e-16 -1.754702790808797576e-15 0.000000000000000000e+00 -4.578500332669303047e-15 -1.451954016939884325e-16 0.000000000000000000e+00 -1.193641058563264211e-15 4.656606632965341124e-15 0.000000000000000000e+00 1.698073996954103393e-15 -2.773796458676733237e-15 -1.011739866092877616e-15 1.597368959375674230e-16 -1.754702790808797576e-15 0.000000000000000000e+00 0.000000000000000000e+00 0.000000000000000000e+00 0.000000000000000000e+00 -2.206198640694820091e-15 2.533857179709247006e-15 0.000000000000000000e+00 -8.917473042545191841e-16 -2.224102997636208514e-15 -1.011739866092877616e-15 1.597368959375674230e-16 -1.754702790808797576e-15 0.000000000000000000e+00 0.000000000000000000e+00 0.000000000000000000e+00 0.000000000000000000e+00 -2.471938464212220594e-15 4.297116320383862646e-15 0.000000000000000000e+00 3.529201502095260380e-16 -2.729662001023309578e-16
6.000000000000000000e+02 0.000000000000000000e+00 0.000000000000000000e+00 0.000000000000000000e+00 0.000000000000000000e+00 0.000000000000000000e+00 -1.454585023991377124e-01 -4.762064282841281526e-02 1.308470420702588510e-01 -1.705757030646974093e-01 1.802386873755061902e-01 -2.437252621341361447e-01 1.093978140354425060e-01 -1.378183794647001303e-01 2.986854850113121809e-02 -1.349436432452751355e-01 2.464408692397054498e-02 3.751221468765846695e-02 -1.986433484743890809e-01 6.132301792228465193e-02 1.802979479567385912e-01 2.611921259881966884e-01 -1.526773515451649299e-01 -1.097724319306665197e-01 -1.375294082359222736e-01 6.590220445356607948e-02 -3.122481958875574781e-01 -2.894080119016807784e-02 1.264035614624097470e-01 -2.328975239651208222e-03 -7.481227084480752271e-03 2.658097275156110287e-02 -3.526440146389624424e-03 -1.483034222098587179e-02 4.226102253502418693e-02 -2.417188557360384210e-03 2.521698185449035203e-04 1.184317309470091532e-03 6.729788140773414196e-03 -1.498821505192179937e-02 7.049238545056259186e-02 -3.185843495003042869e-01 2.670608663485323636e-02 -1.499286581020683184e-01 3.292645858110499479e-01 5.774488073536138133e-02 -2.748302181162595170e-01 9.275337126959776191e-02 2.377978600733749726e-01 2.282309215617646381e-01 1.941285072701254832e-01 -1.357111776810735915e+00 3.797095586552323154e-01 -3.154687589905571965e+00 2.887436427688078733e-01 -5.895914934408408997e-02 1.855229542511477314e-01 0.000000000000000000e+00 0.000000000000000000e+00 0.000000000000000000e+00 1.868955219873386459e-14 7.703989370919342338e-16 0.000000000000000000e+00 -1.831537296104935650e-14 5.499546192363568569e-16 0.000000000000000000e+00 -9.741820668901312475e-16 -8.651403238699363742e-16 1.273234604472249828e-15 0.000000000000000000e+00 0.000000000000000000e+00 0.000000000000000000e+00 0.000000000000000000e+00 -1.564033672845546344e-15 9.106920111931766587e-15 0.000000000000000000e+00 -6.189245180859917967e-16 2.816130212148744526e-15 -9.741820668901312475e-16 -8.651403238699363742e-16 1.273234604472249828e-15 0.000000000000000000e+00 -5.319630933362854730e-15 -1.923727279564661488e-15 0.000000000000000000e+00 -1.696338394278803602e-15 4.056375425531008990e-15 0.000000000000000000e+00 -1.211513934513356559e-15 1.134182671054485493e-15 -9.741820668901312475e-16 -8.651403238699363742e-16 1.273234604472249828e-15 0.000000000000000000e+00 0.000000000000000000e+00 0.000000000000000000e+00 0.000000000000000000e+00 2.045226093124513389e-15 6.888502200417189299e-15 0.000000000000000000e+00 3.894346226011407790e-15 5.878428593934284621e-16 -9.741820668901312475e-16 -8.651403238699363742e-16 1.273234604472249828e-15 0.000000000000000000e+00 0.000000000000000000e+00 0.000000000000000000e+00 0.000000000000000000e+00 -2.240921285925571980e-15 4.096144629201159502e-15 0.000000000000000000e+00 -2.723578668383198628e-15 1.413161433378218345e-15 7.057166312350177106e-01 -7.854837507437213429e-01 -1.971506635297591847e+00 -2.807444657228238771e+00 -1.162429328277909457e+00 3.301305596105683193e+00 -2.437555788198424167e-01 -4.404737622584500856e-01 -2.186622530862288860e-01 -2.185136263258204981e-01 5.676351741174828769e-01 -2.376622572293072833e-01 0.000000000000000000e+00 0.000000000000000000e+00 0.000000000000000000e+00 -6.163194595376643048e-15 8.233406067820375473e-16 0.000000000000000000e+00 -6.679044814661773993e-15 -2.963300944726384067e-16 0.000000000000000000e+00 -1.013863344417877115e-15 -1.230449216186813178e-16 -1.319923700462886898e-15 0.000000000000000000e+00 0.000000000000000000e+00 0.000000000000000000e+00 0.000000000000000000e+00 2.787050896195336508e-15 2.325964045843539709e-15 0.000000000000000000e+00 1.153236687159865842e-15 -1.416523608026075592e-16 -1.013863344417877115e-15 -1.230449216186813178e-16 -1.319923700462886898e-15 0.000000000000000000e+00 -2.402260901788452143e-15 6.011690420670996009e-16 0.000000000000000000e+00 -1.557137096942962660e-15 4.699711492819122760e-15 0.000000000000000000e+00 1.100320953384612177e-15 -7.557281764955543827e-15 -1.013863344417877115e-15 -1.230449216186813178e-16 -1.319923700462886898e-15 0.000000000000000000e+00 0.000000000000000000e+00 0.000000000000000000e+00 0.000000000000000000e+00 -2.629571819168691592e-15 1.931843123179308715e-15 0.000000000000000000e+00 -8.223744686965111618e-16 -2.768477899828029069e-15 -1.013863344417877115e-15 -1.230449216186813178e-16 -1.319923700462886898e-15 0.000000000000000000e+00 0.000000000000000000e+00 0.000000000000000000e+00 0.000000000000000000e+00 -2.190692739661924987e-15 7.029106248592487778e-16 0.000000000000000000e+00 -1.756433588981101063e-16 -2.985081413337228457e-15
